<mxfile host="65bd71144e">
    <diagram id="9kxZtDrnx1mr4oe_lj4n" name="Page-1">
        <mxGraphModel dx="616" dy="1754" grid="1" gridSize="10" guides="1" tooltips="1" connect="1" arrows="1" fold="1" page="1" pageScale="1" pageWidth="850" pageHeight="1100" math="0" shadow="0">
            <root>
                <mxCell id="0"/>
                <mxCell id="1" parent="0"/>
                <mxCell id="2" value="Event Bus" style="rounded=1;whiteSpace=wrap;html=1;labelPosition=center;verticalLabelPosition=top;align=center;verticalAlign=bottom;fontSize=23;" parent="1" vertex="1">
                    <mxGeometry x="190" width="390" height="610" as="geometry"/>
                </mxCell>
                <mxCell id="3" value="Plugin" style="rounded=1;whiteSpace=wrap;html=1;fontSize=23;" parent="1" vertex="1">
                    <mxGeometry x="230" y="70" width="315" height="40" as="geometry"/>
                </mxCell>
                <mxCell id="4" value="Plugin" style="rounded=1;whiteSpace=wrap;html=1;fontSize=23;" parent="1" vertex="1">
                    <mxGeometry x="230" y="141" width="315" height="40" as="geometry"/>
                </mxCell>
                <mxCell id="5" value="Plugin" style="rounded=1;whiteSpace=wrap;html=1;fontSize=23;" parent="1" vertex="1">
                    <mxGeometry x="230" y="208" width="315" height="40" as="geometry"/>
                </mxCell>
                <mxCell id="6" value="Middleware" style="rounded=1;whiteSpace=wrap;html=1;fontSize=23;" parent="1" vertex="1">
                    <mxGeometry x="230" y="340" width="315" height="40" as="geometry"/>
                </mxCell>
                <mxCell id="7" value="Middleware" style="rounded=1;whiteSpace=wrap;html=1;fontSize=23;" parent="1" vertex="1">
                    <mxGeometry x="230" y="410" width="315" height="40" as="geometry"/>
                </mxCell>
                <mxCell id="8" value="Middleware" style="rounded=1;whiteSpace=wrap;html=1;fontSize=23;" parent="1" vertex="1">
                    <mxGeometry x="230" y="482" width="315" height="40" as="geometry"/>
                </mxCell>
                <mxCell id="9" value="" style="endArrow=classic;html=1;fontSize=23;exitX=0.5;exitY=1;exitDx=0;exitDy=0;entryX=0.5;entryY=0;entryDx=0;entryDy=0;" parent="1" source="5" target="6" edge="1">
                    <mxGeometry width="50" height="50" relative="1" as="geometry">
                        <mxPoint x="460" y="380" as="sourcePoint"/>
                        <mxPoint x="510" y="330" as="targetPoint"/>
                    </mxGeometry>
                </mxCell>
                <mxCell id="10" value="..." style="text;html=1;strokeColor=none;fillColor=none;align=center;verticalAlign=middle;whiteSpace=wrap;rounded=0;fontSize=29;" parent="1" vertex="1">
                    <mxGeometry x="370" y="181" width="40" height="20" as="geometry"/>
                </mxCell>
                <mxCell id="11" value="..." style="text;html=1;strokeColor=none;fillColor=none;align=center;verticalAlign=middle;whiteSpace=wrap;rounded=0;fontSize=29;" parent="1" vertex="1">
                    <mxGeometry x="365" y="451" width="40" height="20" as="geometry"/>
                </mxCell>
                <mxCell id="12" value="" style="endArrow=classic;html=1;fontSize=23;exitX=0.5;exitY=1;exitDx=0;exitDy=0;entryX=0.5;entryY=0;entryDx=0;entryDy=0;" parent="1" source="3" edge="1" target="4">
                    <mxGeometry width="50" height="50" relative="1" as="geometry">
                        <mxPoint x="460" y="258" as="sourcePoint"/>
                        <mxPoint x="450" y="140" as="targetPoint"/>
                    </mxGeometry>
                </mxCell>
                <mxCell id="13" value="" style="endArrow=classic;html=1;fontSize=23;exitX=0.5;exitY=1;exitDx=0;exitDy=0;entryX=0.5;entryY=0;entryDx=0;entryDy=0;" parent="1" source="6" target="7" edge="1">
                    <mxGeometry width="50" height="50" relative="1" as="geometry">
                        <mxPoint x="460" y="368" as="sourcePoint"/>
                        <mxPoint x="460" y="398" as="targetPoint"/>
                    </mxGeometry>
                </mxCell>
            </root>
        </mxGraphModel>
    </diagram>
</mxfile>